 <svg version="1.0" xmlns="http://www.w3.org/2000/svg"  width="300.000000pt" height="176.000000pt" viewBox="0 0 325.000000 176.000000"  preserveAspectRatio="xMidYMid meet">  <g transform="translate(0.000000,176.000000) scale(0.100000,-0.100000)" fill="#fc6454" stroke="none"> <path d="M223 1170 c-74 -30 -146 -98 -184 -175 -30 -61 -31 -69 -27 -157 3 -71 10 -103 27 -136 34 -66 97 -128 160 -159 49 -24 68 -28 146 -28 78 0 97 4 146 28 165 81 239 279 164 444 -32 73 -102 144 -173 175 -69 31 -191 35 -259 8z m241 -27 c194 -70 259 -339 121 -501 -21 -24 -62 -54 -99 -72 -53 -27 -75 -31 -139 -32 -167 0 -289 107 -322 285 -4 20 -4 45 0 54 5 10 10 31 12 47 9 64 79 162 138 194 83 46 201 56 289 25z"/> <path d="M278 1033 c-31 -20 -68 -81 -68 -114 0 -13 11 -47 24 -75 13 -28 27 -71 31 -95 8 -45 50 -99 78 -99 28 0 77 59 77 92 0 17 11 50 24 72 49 84 42 151 -20 206 -40 35 -101 41 -146 13z m123 -20 c63 -37 71 -106 23 -189 -15 -25 -24 -57 -24 -83 0 -23 -4 -40 -8 -37 -5 3 -15 -4 -22 -15 -14 -19 -57 -28 -45 -9 3 6 1 10 -5 10 -6 0 -8 5 -4 12 5 8 2 9 -9 5 -14 -5 -17 0 -17 33 0 24 -11 61 -27 92 -42 80 -33 145 25 181 35 21 77 21 113 0z"/> <path d="M338 703 c7 -3 16 -2 19 1 4 3 -2 6 -13 5 -11 0 -14 -3 -6 -6z"/> <path d="M2605 1021 c-59 -26 -76 -93 -35 -136 13 -14 27 -25 32 -25 5 0 -3 11 -18 23 -19 17 -27 33 -27 55 0 60 53 90 134 77 32 -6 39 -10 34 -23 -5 -14 -4 -15 6 -4 9 8 10 15 3 22 -14 14 -104 22 -129 11z"/> <path d="M740 985 c0 -34 1 -35 40 -35 l39 0 3 -132 3 -133 38 -3 37 -3 0 135 0 136 45 0 c45 0 45 0 45 35 l0 35 -125 0 -125 0 0 -35z m240 1 c0 -22 -5 -25 -42 -28 l-43 -3 -3 -132 -3 -133 -29 0 -30 0 0 135 0 135 -40 0 c-36 0 -40 3 -40 25 l0 25 115 0 115 0 0 -24z"/> <path d="M1000 850 l0 -170 38 2 c36 1 36 1 5 5 l-33 4 0 159 0 159 33 4 c31 4 31 4 -5 5 l-38 2 0 -170z"/> <path d="M1197 1013 c-4 -3 -7 -32 -7 -64 l0 -58 -62 -4 -63 -3 68 -2 67 -2 0 65 0 65 30 0 30 0 0 -160 0 -160 -30 0 -30 0 0 70 0 70 -67 -2 -68 -2 62 -3 62 -4 3 -67 3 -67 35 0 35 0 3 168 2 167 -33 0 c-19 0 -37 -3 -40 -7z"/> <path d="M1312 853 l3 -168 35 0 35 0 0 165 0 165 -38 3 -37 3 2 -168z m68 -3 l0 -160 -30 0 -30 0 0 160 0 160 30 0 30 0 0 -160z"/> <path d="M1424 1007 c-2 -7 -3 -82 -2 -167 l3 -155 35 0 35 0 0 112 c-1 62 3 107 7 100 4 -6 33 -57 65 -112 l58 -100 45 0 45 0 3 168 2 167 -34 0 -35 0 -3 -112 -3 -112 -64 112 -64 112 -44 0 c-26 0 -46 -5 -49 -13z m156 -114 c36 -61 68 -115 73 -119 4 -4 7 47 7 114 l0 122 25 0 25 0 0 -160 0 -160 -39 0 -40 0 -68 120 c-37 66 -71 120 -75 120 -4 0 -4 -54 -1 -120 l6 -120 -31 0 -32 0 0 161 0 160 42 -3 43 -3 65 -112z"/> <path d="M1760 850 l0 -171 38 3 37 3 1 50 1 50 -4 -47 c-4 -46 -6 -48 -34 -48 l-29 0 0 160 0 160 29 0 c29 0 30 -2 34 -50 l4 -50 -1 52 -1 53 -37 3 -38 3 0 -171z"/> <path d="M1895 958 c-69 -90 -68 -88 -62 -88 2 0 28 32 58 70 47 63 56 70 87 70 39 0 41 6 -30 -81 -21 -26 -38 -52 -38 -59 0 -7 23 -49 50 -92 28 -43 50 -81 50 -83 0 -3 -15 -5 -32 -5 -30 0 -37 7 -72 65 -45 77 -49 80 -67 57 -12 -15 -12 -16 2 -4 14 11 22 3 58 -58 41 -68 43 -70 81 -70 22 0 40 4 40 10 0 5 -22 45 -50 88 -27 43 -50 83 -50 89 0 6 23 39 50 73 28 34 50 66 50 71 0 5 -17 9 -39 9 -35 0 -42 -5 -86 -62z"/> <path d="M2040 855 l0 -165 95 0 c78 0 95 3 95 15 0 12 -15 15 -82 13 l-83 -2 80 -6 80 -6 -87 -2 -88 -2 0 155 0 155 88 -2 87 -2 -77 -3 -78 -4 2 -57 2 -57 3 53 4 52 75 0 c59 0 74 3 74 15 0 12 -17 15 -95 15 l-95 0 0 -165z"/> <path d="M2370 1011 c0 -6 6 -8 13 -6 8 4 22 -21 41 -70 16 -42 31 -74 33 -72 9 10 -56 152 -71 155 -9 2 -16 -1 -16 -7z"/> <path d="M2775 990 c9 -16 18 -30 21 -30 2 0 0 9 -6 21 -7 11 -9 23 -6 27 8 8 9 6 50 -75 20 -40 38 -73 41 -73 3 0 -13 36 -35 80 -30 60 -45 80 -60 80 -20 0 -20 -1 -5 -30z"/> <path d="M2972 1008 c-15 -19 -63 -118 -57 -118 2 0 18 27 35 59 16 33 35 61 42 64 8 3 8 6 2 6 -6 1 -16 -5 -22 -11z"/> <path d="M2614 1000 c-12 -5 -25 -13 -28 -19 -4 -5 7 -3 24 6 20 10 44 13 68 9 27 -4 31 -3 17 4 -25 11 -54 11 -81 0z"/> <path d="M2356 975 c-9 -26 -7 -32 5 -12 6 10 9 21 6 23 -2 3 -7 -2 -11 -11z"/> <path d="M2361 923 c-12 -31 -20 -58 -17 -60 2 -2 12 19 22 46 9 27 21 48 26 45 4 -3 8 -1 8 5 0 5 -4 12 -9 15 -4 3 -18 -20 -30 -51z"/> <path d="M2939 903 c-34 -61 -45 -92 -50 -143 l-6 -65 -1 67 c-1 37 -5 69 -9 71 -5 3 -7 -28 -5 -69 3 -56 7 -74 18 -74 11 0 14 15 14 61 0 53 6 71 46 145 25 46 43 84 41 84 -3 0 -25 -35 -48 -77z"/> <path d="M2572 940 c0 -14 2 -19 5 -12 2 6 2 18 0 25 -3 6 -5 1 -5 -13z"/> <path d="M2825 900 c14 -27 28 -50 30 -50 3 0 -6 23 -20 50 -14 28 -28 50 -30 50 -3 0 6 -22 20 -50z"/> <path d="M2336 925 c-9 -26 -7 -32 5 -12 6 10 9 21 6 23 -2 3 -7 -2 -11 -11z"/> <path d="M2406 920 c3 -14 11 -32 16 -40 6 -10 7 -7 2 10 -3 14 -11 32 -16 40 -6 10 -7 7 -2 -10z"/> <path d="M2580 904 c0 -3 34 -20 75 -39 59 -27 76 -40 81 -61 10 -41 -7 -77 -46 -96 -22 -11 -28 -18 -17 -18 10 0 32 13 48 29 34 34 38 78 12 109 -17 19 -153 87 -153 76z"/> <path d="M2307 848 c-9 -23 -15 -43 -13 -45 2 -2 11 15 20 38 9 23 15 43 13 45 -2 2 -11 -15 -20 -38z"/> <path d="M2140 870 l75 -6 -72 -2 -73 -2 2 -67 2 -68 3 63 4 62 69 0 c56 0 70 3 70 15 0 12 -14 15 -77 13 l-78 -2 75 -6z"/> <path d="M2890 860 c-6 -11 -8 -20 -6 -20 3 0 10 9 16 20 6 11 8 20 6 20 -3 0 -10 -9 -16 -20z"/> <path d="M2434 848 c5 -16 -1 -18 -43 -18 -30 0 -51 5 -54 13 -3 7 -6 5 -6 -5 -1 -15 8 -18 53 -18 58 0 71 7 54 30 -8 12 -9 12 -4 -2z"/> <path d="M2630 850 c8 -5 20 -10 25 -10 6 0 3 5 -5 10 -8 5 -19 10 -25 10 -5 0 -3 -5 5 -10z"/> <path d="M2460 845 c0 -5 5 -17 10 -25 5 -8 10 -10 10 -5 0 6 -5 17 -10 25 -5 8 -10 11 -10 5z"/> <path d="M2696 815 c19 -19 23 -31 18 -48 -10 -36 -21 -42 -87 -48 l-62 -6 56 -1 c61 -2 92 14 103 54 6 21 -26 74 -44 74 -5 0 2 -11 16 -25z"/> <path d="M2310 789 c-7 -11 -9 -23 -7 -26 3 -2 8 5 12 16 6 18 14 21 71 21 63 0 65 -1 76 -31 6 -16 12 -28 14 -26 2 2 -1 18 -7 35 -11 32 -12 32 -80 32 -59 0 -70 -3 -79 -21z"/> <path d="M2481 798 c-1 -12 31 -89 35 -85 3 2 -4 24 -15 48 -11 24 -20 41 -20 37z"/> <path d="M2266 747 c-20 -53 -20 -57 -1 -57 15 0 40 48 31 58 -3 2 -8 -7 -12 -22 -3 -14 -10 -26 -15 -26 -12 0 -12 1 7 45 8 20 13 39 11 41 -2 3 -12 -15 -21 -39z"/> <path d="M2484 717 c3 -10 6 -21 6 -23 0 -2 10 -4 23 -3 14 0 17 2 7 6 -8 3 -21 13 -29 22 -12 15 -13 14 -7 -2z"/> <path d="M2540 715 c0 -8 2 -15 4 -15 2 0 6 7 10 15 3 8 1 15 -4 15 -6 0 -10 -7 -10 -15z"/> <path d="M2568 693 c6 -2 18 -2 25 0 6 3 1 5 -13 5 -14 0 -19 -2 -12 -5z"/> </g> </svg> 